<?xml version="1.0" encoding="UTF-8" standalone="no"?>
<!-- Created with Inkscape (http://www.inkscape.org/) -->

<svg
   xmlns:dc="http://purl.org/dc/elements/1.1/"
   xmlns:cc="http://creativecommons.org/ns#"
   xmlns:rdf="http://www.w3.org/1999/02/22-rdf-syntax-ns#"
   xmlns:svg="http://www.w3.org/2000/svg"
   xmlns="http://www.w3.org/2000/svg"
   version="1.1"
   width="40"
   height="40"
   id="svg5549">
  <metadata
     id="metadata5565">
    <rdf:RDF>
      <cc:Work
         rdf:about="">
        <dc:format>image/svg+xml</dc:format>
        <dc:type
           rdf:resource="http://purl.org/dc/dcmitype/StillImage" />
        <dc:title></dc:title>
      </cc:Work>
    </rdf:RDF>
  </metadata>
  <defs
     id="defs5563" />
  <g
     transform="matrix(1.0526316,0,0,-1.0526316,-1021.5907,917.89474)"
     id="g5551">
    <g
       transform="translate(989.5112,872)"
       id="g5553">
      <path
         d="m 0,0 c -10.477,0 -19,-8.523 -19,-19 0,-10.477 8.523,-19 19,-19 10.477,0 19,8.523 19,19 C 19,-8.523 10.477,0 0,0 m 0,-3 c 8.836,0 16,-7.164 16,-16 0,-8.838 -7.164,-16 -16,-16 -8.836,0 -16,7.162 -16,16 0,8.836 7.164,16 16,16"
         id="path5555"
         style="fill:#ffffff;fill-opacity:1;fill-rule:nonzero;stroke:none" />
    </g>
    <g
       transform="translate(995.8726,856.2617)"
       id="g5557">
      <path
         d="m 0,0 c 0.008,-0.141 0.01,-0.281 0.01,-0.424 0,-4.338 -3.301,-9.34 -9.34,-9.34 -1.854,0 -3.578,0.543 -5.031,1.475 0.257,-0.029 0.517,-0.045 0.783,-0.045 1.539,0 2.953,0.523 4.076,1.404 -1.436,0.028 -2.648,0.977 -3.066,2.28 0.201,-0.037 0.406,-0.059 0.617,-0.059 0.301,0 0.59,0.041 0.865,0.115 -1.5,0.303 -2.633,1.629 -2.633,3.219 l 0,0.041 c 0.444,-0.246 0.949,-0.393 1.487,-0.41 -0.882,0.588 -1.459,1.594 -1.459,2.732 0,0.602 0.162,1.166 0.443,1.651 1.619,-1.987 4.039,-3.293 6.766,-3.43 -0.055,0.24 -0.084,0.49 -0.084,0.748 0,1.813 1.468,3.281 3.283,3.281 0.943,0 1.797,-0.398 2.394,-1.035 C -0.141,2.35 0.562,2.623 1.197,3 0.951,2.232 0.432,1.59 -0.246,1.184 0.418,1.262 1.051,1.439 1.639,1.699 1.199,1.041 0.643,0.463 0,0"
         id="path5559"
         style="fill:#ffffff;fill-opacity:1;fill-rule:nonzero;stroke:none" />
    </g>
  </g>
</svg>
