<?xml version="1.0" encoding="UTF-8" standalone="no"?>
<!-- Generator: Adobe Illustrator 15.0.0, SVG Export Plug-In . SVG Version: 6.00 Build 0)  -->

<svg
   xmlns:dc="http://purl.org/dc/elements/1.1/"
   xmlns:cc="http://creativecommons.org/ns#"
   xmlns:rdf="http://www.w3.org/1999/02/22-rdf-syntax-ns#"
   xmlns:svg="http://www.w3.org/2000/svg"
   xmlns="http://www.w3.org/2000/svg"
   xmlns:sodipodi="http://sodipodi.sourceforge.net/DTD/sodipodi-0.dtd"
   xmlns:inkscape="http://www.inkscape.org/namespaces/inkscape"
   version="1.1"
   x="0px"
   y="0px"
   width="1417.322"
   height="1417.323"
   viewBox="0 0 1417.322 1417.323"
   enable-background="new 0 0 1417.322 1417.323"
   xml:space="preserve"
   id="svg2"
   inkscape:version="0.48.2 r9819"
   sodipodi:docname="helios_yellow_3mm_500mmx500mm_plinth_panels_seg2.svg"><metadata
   id="metadata2224"><rdf:RDF><cc:Work
       rdf:about=""><dc:format>image/svg+xml</dc:format><dc:type
         rdf:resource="http://purl.org/dc/dcmitype/StillImage" /><dc:title /></cc:Work></rdf:RDF></metadata><defs
   id="defs2222">
	
	
</defs><sodipodi:namedview
   pagecolor="#ffffff"
   bordercolor="#666666"
   borderopacity="1"
   objecttolerance="10"
   gridtolerance="10"
   guidetolerance="10"
   inkscape:pageopacity="0"
   inkscape:pageshadow="2"
   inkscape:window-width="1680"
   inkscape:window-height="1002"
   id="namedview2220"
   showgrid="false"
   inkscape:zoom="0.35355339"
   inkscape:cx="727.85983"
   inkscape:cy="569.71673"
   inkscape:window-x="1"
   inkscape:window-y="0"
   inkscape:window-maximized="0"
   inkscape:current-layer="svg2"
   inkscape:document-units="mm"
   units="mm" />
<g
   id="g5"
   transform="translate(0,-2.1385937e-4)">
		<path
   style="fill:#ffdd00"
   inkscape:connector-curvature="0"
   id="path7"
   d="M 1403.126,13.56 V 1403.763 H 14.196 V 13.56 h 1388.93 m 14.173,-14.173 H 0.023 V 1417.936 H 1417.298 V -0.613 l 10e-4,0 z" />
	</g>
<g
   id="Your_drawing"
   transform="translate(0,-2.1385937e-4)">
</g>
<path
   inkscape:connector-curvature="0"
   style="fill:none;stroke:#ff0000;stroke-width:0.03543307;stroke-miterlimit:4;stroke-opacity:1;stroke-dasharray:none"
   d="m 22.185421,21.821886 71.96875,247.343704 255.500009,0 255.46875,0 71.96875,-247.343704 -327.4375,0 -327.468759,0 z m 20.25,8.75 96.500009,0 9.3125,17.5312 -83.000009,0 -22.8125,-17.5312 z m 193.000009,0 96.5,0 -17.71875,17.5312 -83,0 4.21875,-17.5312 z m 131.9375,0 96.46875,0 4.21875,17.5312 -82.96875,0 -0.0312,0 -17.6875,-17.5312 z m 192.96875,0 96.5,0 -22.8125,17.5312 -83,0 9.3125,-17.5312 z m -410.59375,7.0312 76.90625,0 -9.25,38.5625 -47.1875,0 -20.46875,-38.5625 z m 322.875,0 76.90625,0 -20.46875,38.5625 -47.1875,0 -9.25,-38.5625 z m -436.562509,1.5 22.8125,17.5313 17.25,59.250004 -19.4375,-5.8438 -20.625,-70.937504 z m 627.156259,0 -20.625,70.937504 -19.4375,5.8438 17.25,-59.250004 22.8125,-17.5313 z m -322.4375,0.3438 0,70.687504 -17.71875,5.8437 0,-59.000004 17.71875,-17.5312 z m 17.71875,0 17.71875,17.5312 0,59.000004 -17.71875,-5.8437 0,-70.687504 z m -282.812509,12.5937 69.312509,0 5.15625,9.6875 -61.875009,0 -12.59375,-9.6875 z m 478.593759,0 69.3125,0 -12.59375,9.6875 -61.875,0 5.15625,-9.6875 z m -318.8125,0.5938 68.875,0 -8.625,8.5 -62.3125,0 2.0625,-8.5 z m 159.46875,0 68.875,0 2.0625,8.5 -62.3125,0 -8.625,-8.5 z m -329.562509,12.9375 12.78125,9.8125 11.625,39.937504 -10.875,-3.25 -13.53125,-46.500004 z m 568.531259,0 -13.53125,46.500004 -10.875,3.25 11.625,-39.937504 12.78125,-9.8125 z m -545.812509,0.062 69.437509,0 9.3125,17.5312 -55.93751,0 -22.812499,-17.5312 z m 138.937509,0 69.46875,0 -17.71875,17.5312 -55.96875,0 4.21875,-17.5312 z m 175.75,0 69.46875,0 4.21875,17.5312 -55.96875,0 -17.71875,-17.5312 z m 138.96875,0 69.4375,0 -22.8125,17.5312 -55.9375,0 9.3125,-17.5312 z m -223.125,1.0312 0,45.468804 -8.84375,2.9062 0,-39.625004 8.84375,-8.75 z m 62.03125,0 8.84375,8.75 0,39.625004 -8.84375,-2.9062 0,-45.468804 z m -298.968759,7.5 22.812499,17.5313 10.4375,35.875004 -19.406249,-5.8438 -13.84375,-47.562504 z m 535.906259,0 -13.84375,47.562504 -19.40625,5.8438 10.4375,-35.875004 22.8125,-17.5313 z m -312.25,0.3438 0,47.312504 -17.71875,5.8437 0,-35.625004 17.71875,-17.5312 z m 88.59375,0 17.71875,17.5312 0,35.625004 -17.71875,-5.8437 0,-47.312504 z m -280.50001,17.4375 165.34376,0 0,107.093704 -134.15625,0 -31.18751,-107.093704 z m 307.06251,0 165.34375,0 -31.15625,107.093704 -134.1875,0 0,-107.093704 z m -354.062509,27.218704 42.718749,12.875 7.84375,26.9375 -35.218749,12.8438 -15.34375,-52.6563 z m 566.406259,0 -15.3125,52.6563 -35.25,-12.8438 7.84375,-26.9375 42.71875,-12.875 z m -299.15625,0.4063 0,51.8437 -38.96875,-12.8437 0,-26.1563 38.96875,-12.8437 z m 31.90625,0 38.96875,12.8437 0,26.1563 -38.96875,12.8437 0,-51.8437 z m -77.96875,43.75 17.71875,5.8437 0,47.3125 -17.71875,-17.5312 0,-35.625 z m 124.03125,0 0,35.625 -17.71875,17.5312 0,-47.3125 17.71875,-5.8437 z m -286.28125,0.125 10.4375,35.875 -12.59375,17.5 -13.84376,-47.5313 16.00001,-5.8437 z m 448.53125,0 16,5.8437 -13.84375,47.5313 -12.59375,-17.5 10.4375,-35.875 z m -250.84375,11.5625 17.71875,5.8437 0,70.6875 -17.71875,-17.5312 0,-59 z m 53.15625,0 0,59 -17.71875,17.5312 0,-70.6875 17.71875,-5.8437 z m -282.875009,0.125 17.249999,59.25 -12.624999,17.5312 -20.625,-70.9375 16,-5.8437 z m 512.593759,0 16,5.8437 -20.625,70.9375 -12.625,-17.5312 0,-0.031 17.25,-59.2188 z m -296.15625,0.8125 8.84375,2.9062 0,45.4688 -8.84375,-8.75 0,-39.625 z m 79.71875,0 0,39.625 -8.84375,8.75 0,-45.4688 8.84375,-2.9062 z m -283.25001,0.125 11.84375,40.7187 -5.34375,7.4375 -13.312499,-45.6875 6.812499,-2.4687 z m 486.78126,0 6.8125,2.4687 -13.3125,45.6875 -5.34375,-7.4375 11.84375,-40.7187 z m -445.875,31.75 43.875,0 -2.5,17.5312 -54,0 12.625,-17.5312 z m 87.75,0 43.875,0 17.71875,17.5312 -54,0 -7.59375,-17.5312 z m 185.59375,0 43.875,0 -7.59375,17.5312 -54,0 17.71875,-17.5312 z m 87.75,0 43.875,0 12.625,17.5312 -54,0 -2.5,-17.5312 z m -311.125,7 33.75,0 16.71875,38.5625 -56,0 5.53125,-38.5625 z m 271.3125,0 33.71875,0 5.53125,38.5625 -56,0 16.75,-38.5625 z m -218.75,14.8437 45.84375,0 9,8.9063 -50.96875,0 -3.875,-8.9063 z m 154.0625,0 45.84375,0 -3.875,8.9063 -50.96875,0 9,-8.9063 z m -267.40625,0.5625 46.1875,0 -1.125,7.7813 -50.65625,0 5.59375,-7.7813 z m 380.4375,0 46.15625,0 5.59375,7.7813 -50.65625,0 -1.09375,-7.7813 z m -394.84376,12.6563 64.09376,0 -2.5,17.5312 -74.21876,0 12.625,-17.5312 z m 128.18751,0 64.09375,0 17.71875,17.5312 -74.21875,0 -7.59375,-17.5312 z m 134.9375,0 0.0312,0 64.0625,0 -7.59375,17.5312 -74.1875,0 17.6875,-17.5312 z m 128.21875,0 64.0625,0 12.625,17.5312 -74.1875,0 -2.5,-17.5312 z"
   id="path4327" /><path
   inkscape:connector-curvature="0"
   style="fill:none;stroke:#ff0000;stroke-width:0.03543307;stroke-miterlimit:4;stroke-opacity:1;stroke-dasharray:none"
   d="m 773.37296,356.85379 49.22913,-20.0784 5.74342,23.4314 5.71365,23.31 5.70623,23.2796 0.0303,-0.01 9.74295,4.1756 19.42426,-11.1962 19.46203,-11.1734 12.57927,51.5821 19.42427,-11.1962 -12.67771,-51.5901 19.4472,-11.2341 19.41676,-11.2266 5.53217,-13.0033 0.0301,-0.01 -0.007,-0.03 -4.47124,-18.2413 -4.47866,-18.2716 -4.44148,-18.1199 49.22902,-20.0784 -4.4786,-18.2715 -49.29602,19.8053 -4.44149,-18.1199 -4.47867,-18.2716 -4.47122,-18.2413 -10.70238,-6.5143 -20.79074,5.0961 -20.73012,5.0813 -12.67771,-51.5901 -20.76043,5.0887 12.6171,51.605 -20.76043,5.0887 -20.76043,5.0887 -6.47662,10.7253 5.7062,23.2795 5.71366,23.31 5.7434,23.4313 -49.29608,19.8053 5.70621,23.2796 z m 74.28077,45.3706 -5.61692,-22.9153 -5.62438,-22.9458 -5.62439,-22.9458 -5.62437,-22.9457 -5.62437,-22.9457 -5.61692,-22.9153 -5.62438,-22.9458 20.82114,-5.1036 20.79078,-5.0961 20.82113,-5.1036 20.79078,-5.0962 20.82851,-5.0735 4.55307,18.5751 4.56049,18.6055 4.56797,18.6359 4.56049,18.6054 4.56049,18.6054 4.56798,18.6359 4.5605,18.6055 -19.33321,11.1739 -19.31027,11.1361 -19.34066,11.1435 -19.30285,11.1665 -19.34065,11.1435 z"
   id="path4585" /><path
   inkscape:connector-curvature="0"
   style="fill:none;stroke:#ff0000;stroke-width:0.03543307;stroke-miterlimit:4;stroke-opacity:1;stroke-dasharray:none"
   d="m 778.5864,368.55869 -7.5,52.5937 -24.125,0 -24,0 -23.9688,0 0,0.031 -8.875,8.8125 0,21.375 0,21.375 -53.1562,0.031 0,21.375 53.1562,0.031 0,21.3438 0,21.4062 8.875,8.8438 18.7813,0 18.8125,0 18.6562,0 -7.5,52.5937 18.7813,0 7.8125,-52.5937 18.6562,0 18.8126,0 18.7812,0 11.3438,-8.5 6.25,-21.5313 6.2812,-21.5625 53.1562,0.031 6.25,-21.5312 -53.125,0.062 6.25,-21.5625 6.25,-21.5313 -6.4062,-8.5 -23.9688,0 -23.9687,0 -24.125,0 7.7813,-52.5937 -23.9688,0 z m -79.5625,61.3437 23.5625,0 23.625,0 23.625,0 23.625,0 23.625,0 23.5938,0 23.625,0 -6.2188,21.4375 -6.25,21.4063 -6.2188,21.4375 -6.25,21.4062 -6.25,21.4375 -19.125,0 -19.1874,0 -19.1563,0 -19.1563,0 -19.1874,0 -19.1563,0 -19.1563,0 0,-21.4375 0,-21.4062 0,-21.4375 0,-21.4063 0.031,-21.4375 z"
   id="path4589" /><path
   inkscape:connector-curvature="0"
   style="fill:none;stroke:#ff0000;stroke-width:0.03543307;stroke-miterlimit:4;stroke-opacity:1;stroke-dasharray:none"
   d="m 871.92992,31.352486 0.0312,0 8.8125,-8.8438 106.90625,0 8.78122,8.8438 0.094,0 0,131.625004 -0.031,0 -8.46872,11.3437 -107.625,31.3125 -8.46875,-6.375 -0.0312,0 0,-0.031 0,-0.031 0,-167.843704 z m 8.75,0.031 0,165.250004 107.09375,-31.125 0,-134.093804 -107.09375,-0.031 z"
   id="path4747" /><path
   inkscape:connector-curvature="0"
   style="fill:none;stroke:#ff0000;stroke-width:0.03543307;stroke-miterlimit:4;stroke-opacity:1;stroke-dasharray:none"
   d="m 662.43966,143.35279 0.0312,-0.062 -6.40625,-8.4375 31.3125,-107.625004 11.28125,-8.4375 0.0312,-0.062 131.625,0 0,0.062 8.8438,8.8125 0,106.906304 -8.8438,8.7812 0,0.062 -0.0625,0 -167.75,0 -0.0625,0 z m 2.59375,-8.75 165.21875,0 0,-107.093704 -134.0625,0 -31.15625,107.093704 z"
   id="path4749" /><path
   inkscape:connector-curvature="0"
   style="fill:none;stroke:#ff0000;stroke-width:0.03543307;stroke-miterlimit:4;stroke-opacity:1;stroke-dasharray:none"
   d="m 21.055895,278.63729 57.593755,281 194.40624,0 194.375,0 57.59375,-281 -251.96875,0 -251.999995,0 z m 17.187495,7.75 73.0625,0 8.65625,18.3438 -59.53125,0 -22.1875,-18.3438 z m 146.125,0 73.09375,0 -18.4375,18.3438 -59.53125,0 4.875,-18.3438 z m 104.25,0 73.09375,0 4.875,18.3438 -59.53125,0 -18.4375,-18.3438 z m 146.15625,0 73.0625,0 -22.1875,18.3438 -59.53125,0 8.65625,-18.3438 z m -314.09375,6.3438 55.625,0 -11.28125,42.3125 -24.375,0 -19.96875,-42.3125 z m 249.09375,0 55.625,0 -19.9375,42.3125 -24.40625,0 -11.28125,-42.3125 z m -337.75,1.3125 22.15625,18.3125 14.59376,71.1562 -19.65626,-6.0937 -17.09375,-83.375 z m 482.0625,0 -17.125,83.375 -19.65625,6.125 14.59375,-71.1563 0,-0.031 22.1875,-18.3125 z m -248.84375,0.1562 0,83.2813 -18.40625,6.0937 0,-71.0625 18.40625,-18.3125 z m 15.59375,0 18.4375,18.3125 0,71.0938 -18.4375,-6.125 0,-83.2813 z m -211.18749,14.1875 47.24999,0 5.1875,11 -39.12499,0 -13.3125,-11 z m 359.53124,0 47.25,0 -13.3125,11 -39.125,0 5.1875,-11 z m -245.96875,0.375 46.96875,0 -10.3125,10.25 -39.40625,0 2.75,-10.25 z m 132.6875,0 47,0 2.71875,10.25 -39.40625,0 -10.3125,-10.25 z m -256.375,11.9063 13.43751,11.0937 10.65625,52 -11.90625,-3.6875 -12.18751,-59.4062 z m 427.03125,0 -12.1875,59.4062 -11.90625,3.6875 10.65625,-52 13.4375,-11.0937 z m -243.71875,0.5937 0,58.875 -10.46875,3.4688 0,-51.9375 10.46875,-10.4063 z m 60.40625,0 10.46875,10.4063 0,51.9375 -10.46875,-3.4688 0,-58.875 z m -220.62499,1.7813 45.96874,0 8.65625,18.3437 -32.46875,0 -22.15624,-18.3437 z m 91.99999,0 45.96875,0 -18.40625,18.3437 -32.46875,0 4.90625,-18.3437 z m 150.875,0 46,0 4.875,18.3437 -32.46875,0 -18.40625,-18.3437 z m 92,0 46,0 -22.1875,18.3437 -32.46875,0 8.65625,-18.3437 z m -341.12499,7.6562 22.18749,18.3125 9.59375,46.75 -19.68749,-6.125 -12.09375,-58.9375 z m 393.34374,0 -12.09375,58.9375 -19.6875,6.125 9.59375,-46.75 22.1875,-18.3125 z m -241.3125,0.1563 0,58.8437 -18.4375,6.125 0,-46.6562 18.4375,-18.3125 z m 89.28125,0 18.4375,18.3125 0,46.6562 -18.4375,-6.125 0,-58.8437 z m -211.3125,18.2812 95.8125,0 0,140 -67.09375,0 -28.71875,-140 z m 237.53125,0 95.8125,0 -28.6875,140 -67.125,0 0,-140 z m -286.6875,36.6563 45.40625,14.0937 7.875,38.4688 -39.62499,14.125 -13.65626,-66.6875 z m 431.6875,0 -13.6875,66.6875 -39.625,-14.125 7.875,-38.4688 45.4375,-14.0937 z m -230.03125,0.1875 0,66.3125 -42.53125,-14.0938 0,-38.125 42.53125,-14.0937 z m 28.34375,0 42.53125,14.0937 0,38.125 -42.53125,14.0938 0,-66.3125 z m -77.25,56.4687 18.4375,6.125 0,58.8438 -18.4375,-18.3438 0,-46.625 z m 126.15625,0 0,46.625 -18.4375,18.3438 0,-58.8438 18.4375,-6.125 z m -218.40625,0.062 9.59375,46.7188 -14.65625,18.3437 -12.09375,-58.9687 17.15625,-6.0938 z m 310.65625,0 17.15625,6.0938 -12.0625,58.9687 -14.6875,-18.3437 9.59375,-46.7188 z m -196,12.1563 10.46875,3.4687 0,58.8438 -10.46875,-10.375 0,-51.9375 z m 66.90625,0 0,71.0625 -18.4375,18.3437 0,-83.2812 18.4375,-6.125 z m 14.4375,0 0,51.9375 -10.46875,10.375 0,-58.8438 10.46875,-3.4687 z m -66.875,0.031 18.40625,6.0937 0,83.2813 -18.40625,-18.3438 0,-71.0312 z m -163.46874,0.031 14.59374,71.1562 -14.65624,18.3438 -17.09375,-83.4063 17.15625,-6.0937 z m 379.34374,0 17.15625,6.0937 -17.09375,83.4063 -14.65625,-18.3438 14.59375,-71.1562 z m -365.28125,0.031 10.75,52.5 -7.6875,9.5937 -12.06249,-58.9062 8.99999,-3.1875 z m 351.25,0 8.96875,3.1875 -12.0625,58.9062 -7.6875,-9.5937 10.78125,-52.5 z m -312.03125,42.125 21.84375,0 -3.625,18.3125 -32.875,0 14.65625,-18.3125 z m 43.6875,0 21.84375,0 18.40625,18.3125 -32.84375,0 -7.40625,-18.3125 z m 163.5625,0 21.84375,0 -7.40625,18.3125 -32.84375,0 18.40625,-18.3125 z m 43.6875,0 21.84375,0 14.65625,18.3125 -32.875,0 -3.625,-18.3125 z m -223.96875,6.3437 12.90625,0 17.0625,42.2813 -38.375,0 8.40625,-42.2813 z m 205.9375,0 12.90625,0 8.40625,42.2813 -38.375,0 17.0625,-42.2813 z m -175.46875,15.875 25.65625,0 10.5625,10.5313 -31.96875,0 -4.25,-10.5313 z m 132.25,0 25.65625,0 -4.25,10.5313 -31.96875,0 10.5625,-10.5313 z m -202.96875,0.375 25.875,0 -1.9375,9.7813 -31.78125,0 7.84375,-9.7813 z m 273.5,0 25.875,0 7.8125,9.7813 -31.75,0 -1.9375,-9.7813 z m -289.53125,14.0625 43.875,0 -3.625,18.3125 -54.93749,0 14.68749,-18.3125 z m 87.78125,0 43.90625,0 18.4375,18.3125 -54.9375,0 -7.40625,-18.3125 z m 111.9375,0 43.90625,0 -7.40625,18.3125 -54.9375,0 18.4375,-18.3125 z m 87.8125,0 43.875,0 14.6875,18.3125 -54.9375,0 -3.625,-18.3125 z"
   id="path6" /><path
   style="fill:none;stroke:#ff0000;stroke-width:0.03543307;stroke-miterlimit:4;stroke-opacity:1;stroke-dasharray:none"
   d="m 558.43937,398.22669 4.37499,41.125 -19.625,0 -19.4688,0 -6.24997,7.625 5.74997,28.0625 5.7813,28.0625 -41.3437,-0.032 5.71872,28.0625 41.3437,-0.032 5.75,28.0625 5.75001,28.0313 9.37499,7.625 0,0.032 13.09379,0 12.96879,0 4.34371,41.125 13.09372,0 -4.0624,-41.125 12.96868,0 13.09372,0 7.81257,-7.8125 0,-27.9688 0,-27.9687 41.31241,0 0,-28 -41.31241,0 0,-27.9688 0,-28 -7.81257,-7.7812 -19.4687,0 -19.62503,0 -4.06247,-41.125 -19.50002,0 z m -33.125,48.875 19.15622,0 19.15628,0 19.15629,0 19.15622,0 19.15621,0 0,28 0,28 0,28 0,28 -0.0319,28 -13.37499,0 -13.43749,0 -13.40632,0 -13.43739,0 -13.40631,0 -5.75001,-28 -5.71868,-28 -5.75001,-28 -5.75001,-28 -5.71879,-28 z"
   id="path264"
   inkscape:connector-curvature="0" /><path
   style="fill:none;stroke:#ff0000;stroke-width:0.03543307;stroke-miterlimit:4;stroke-opacity:1;stroke-dasharray:none"
   d="m 675.37505,715.57449 5.74998,-28.0312 5.75,-28.0625 -6.21878,-7.5938 0,-0.032 -19.4687,0 -19.625,0 4.34371,-41.125 -19.4687,0 0,0 -4.06251,41.125 -19.625,0 -19.4688,0 -7.81243,7.7812 0,28.0001 0,27.9687 -41.3438,0 0,28 41.3438,0 0,27.9688 0,27.9687 7.81243,7.7813 0,0.032 13.09379,0 12.96879,0 -4.0938,41.125 13.12501,0 4.34382,-41.125 12.96868,0 13.09368,0 0,-0.032 9.37503,-7.625 5.75001,-28.0313 5.74997,-28.0313 41.31262,7e-4 5.75,-28.0625 z m -7.7812,0.033 0,0 -5.75001,27.998 -5.71879,28 -5.75001,28.0001 -13.4375,0 -13.40631,0 -13.40617,0 -13.43753,0 -13.40628,0 0,-28.0001 0,-28 0,-28 0,-27.9999 0,-28.0001 19.15628,0 19.15633,0 19.15618,0 19.15621,0 19.125,0 -5.6874,28.0001 -5.75,27.9999"
   id="path268"
   inkscape:connector-curvature="0"
   sodipodi:nodetypes="ccccccccccccccccccccccccccccccccccccccccccccccccccccccccccc" /><path
   style="fill:none;stroke:#ff0000;stroke-width:0.03543307;stroke-miterlimit:4;stroke-opacity:1;stroke-dasharray:none"
   d="m 638.31297,278.11149 0.0319,0 7.75,7.7813 139.90627,0 7.78124,-7.7813 0.0319,0 0,-65.5312 -0.0624,0 -7.59373,-9.3438 -140.21875,-28.75 -7.59377,6.2188 -0.0319,0 0,0.032 0,97.375 z m 7.75,-0.032 0,-95.75 140.00003,28.6875 0,67.0937 -140.00003,-0.032 z"
   id="path410"
   inkscape:connector-curvature="0" /><path
   inkscape:connector-curvature="0"
   style="fill:none;stroke:#ff0000;stroke-width:0.03543307;stroke-miterlimit:4;stroke-opacity:1;stroke-dasharray:none"
   d="m 683.76349,402.75769 -7.625,6.25 -140.21875,-28.75 -7.625,-9.375 -0.0312,0 0,-65.5 7.8125,-7.7813 139.90625,0 7.78125,7.7813 0,97.375 z m -7.75,-1.5938 0,-95.7812 -140,0.031 0,67.0625 140,28.6875 z"
   id="path416" /><path
   inkscape:connector-curvature="0"
   style="fill:none;stroke:#ff0000;stroke-width:0.03543307;stroke-miterlimit:4;stroke-opacity:1;stroke-dasharray:none"
   d="m 21.82535,569.61579 43.625,297.0937 148.28125,0 148.28125,0 43.59375,-297.0937 -191.875,0 -191.90625,0 z m 14.4375,6.7188 54.6875,0 6.96875,16.125 -43.09375,0 -18.5625,-16.125 z m 109.34375,0 54.65625,0 -16.1875,16.125 -43.0625,0 4.59375,-16.125 z m 81.5625,0 54.6875,0 4.59375,16.125 -43.09375,0 -16.1875,-16.125 z m 109.34375,0 54.65625,0 -18.5625,16.125 -43.0625,0 6.96875,-16.125 z m -237.46875,5.6562 39.28125,0 -10.59375,37.0938 -12.65625,0 -16.03125,-37.0938 z m 190.09375,0 39.25,0 -16.03125,37.0938 -12.65625,0 -10.5625,-37.0938 z m -258.625,1 18.5625,16.1563 11.65625,79.3437 -16.96875,-5.375 -13.25,-90.125 z m 366.40625,0 -13.21875,90.125 -16.96875,5.375 11.625,-79.3437 18.5625,-16.1563 z m -189.9375,0.062 0,90.0938 -16.1875,5.375 0,-79.3125 16.1875,-16.1563 z m 13.46875,0 16.1875,16.1563 0,79.3125 -16.1875,-5.375 0,-90.0938 z m -157.53125,12.75 32.1875,0 4.09375,9.4688 -25.40625,0 -10.875,-9.4688 z m 269.40625,0 32.1875,0 -10.875,9.4688 -25.375,0 4.0625,-9.4688 z m -188.09375,0.25 32,0 -9,8.9688 -25.5625,0 2.5625,-8.9688 z m 106.96875,0 32,0 2.59375,8.9688 -25.59375,0 -9,-8.9688 z m -197.71875,10.5938 10.96875,9.5312 9.15625,62.375 -10.03125,-3.1562 -10.09375,-68.75 z m 320.46875,0 -10.09375,68.75 -10.03125,3.1562 9.15625,-62.375 10.96875,-9.5312 z m -186.6875,0.3437 0,68.4375 -9.09375,3.0313 0,-62.4063 9.09375,-9.0625 z m 52.90625,0 9.09375,9.0625 0,62.4063 -9.09375,-3.0313 0,-68.4375 z m -166.78125,1.625 31.5,0 6.96875,16.125 -19.9375,0 -18.53125,-16.125 z m 63,0 31.5,0 -16.1875,16.125 -19.90625,0 4.59375,-16.125 z m 123.15625,0 31.5,0 4.625,16.125 -19.9375,0 -16.1875,-16.125 z m 63,0 31.5,0 -18.53125,16.125 -19.9375,0 6.96875,-16.125 z m -254.9375,6.6563 18.5625,16.125 8.5,57.8437 -16.96875,-5.375 -10.09375,-68.5937 z m 292.21875,0 -10.09375,68.5937 -16.9375,5.375 8.46875,-57.8437 18.5625,-16.125 z m -185.1875,0.062 0,68.5625 -16.1875,5.375 0,-57.7813 16.1875,-16.1562 z m 78.1875,0 16.15625,16.1562 0,57.7813 -16.15625,-5.375 0,-68.5625 z m -159.90625,16.125 58.78125,0 0,173.4062 -33.34375,0 -25.4375,-173.4062 z m 182.8125,0 58.78125,0 -25.4375,173.4062 -33.34375,0 0,-173.4062 z m -225.21875,49.1562 39.03125,12.3438 7.40625,50.4062 -35.40625,12.375 -11.03125,-75.125 z m 326.40625,0 -11.03125,75.125 -35.375,-12.375 7.375,-50.4062 39.03125,-12.3438 z m -175.59375,0.062 0,74.9687 -37.21875,-12.3749 0,-50.2188 37.21875,-12.375 z m 24.78125,0 37.21875,12.375 0,50.2188 -37.21875,12.3749 0,-74.9687 z m -67.65625,66.375 16.1875,5.375 0,68.5625 -16.1875,-16.125 0,-57.8125 z m 110.53125,0 0,57.8125 -16.15625,16.125 0,-68.5625 16.15625,-5.375 z m -165.84375,0.031 8.5,57.8437 -13.8125,16.125 -10.0625,-68.5625 0,-0.031 15.375,-5.375 z m 221.15625,0 15.375,5.375 -10.0625,68.5937 -13.8125,-16.125 8.5,-57.8437 z m -133.5,10.75 16.1875,5.375 0,90.0625 -16.1875,-16.1563 0,-79.2812 z m 45.84375,0 0,79.2812 -16.1875,16.1563 0,-90.0625 16.1875,-5.375 z m 118.4375,0 15.375,5.4062 -13.21875,90.0938 -13.8125,-16.125 0,-0.031 11.65625,-79.3438 z m -282.71875,0.031 11.65625,79.3437 -13.8125,16.125 -13.21875,-90.0937 15.375,-5.375 z m 105.8125,0 9.09375,3.0312 0,68.4375 -9.09375,-9.0625 0,-62.4062 z m 71.09375,0 0,62.4062 -9.09375,9.0625 0,-68.4375 9.09375,-3.0312 z m -164.5,0.062 9.21875,62.7187 -7.34375,8.5625 -10.03125,-68.4062 8.15625,-2.875 z m 257.90625,0 8.1875,2.875 -10.0625,68.4062 -7.34375,-8.5625 9.21875,-62.7187 z m -223.3125,53.6562 10.78125,0 -3.8125,16.1563 -20.78125,0 13.8125,-16.1563 z m 21.5625,0 10.78125,0 16.1875,16.1563 -20.78125,0 -6.1875,-16.1563 z m 134.8125,0 10.78125,0 -6.1875,16.1563 -20.78125,0 16.1875,-16.1563 z m 21.5625,0 10.78125,0 13.8125,16.1563 -20.78125,0 -3.8125,-16.1563 z m -162.8125,5.6563 2.9375,0 14.21875,37.0937 -25.9375,0 8.78125,-37.0937 z m 155.53125,0 2.96875,0 8.75,37.0937 -25.9375,0 14.21875,-37.0937 z m -198.28125,26.625 30.78125,0 -3.8125,16.125 -40.78125,0 13.8125,-16.125 z m 61.5625,0 30.78125,0 16.1875,16.125 -40.78125,0 -6.1875,-16.125 z m 90.0625,0 30.78125,0 -6.1875,16.125 -40.78125,0 16.1875,-16.125 z m 61.5625,0 30.78125,0 13.8125,16.125 -40.78125,0 -3.8125,-16.125 z"
   id="path6-5" /><path
   style="fill:none;stroke:#ff0000;stroke-width:0.03543307;stroke-miterlimit:4;stroke-opacity:1;stroke-dasharray:none"
   d="m 785.58239,603.89349 -2.03122,29.4688 -20.06259,0 0,0.032 -6.71871,6.6875 0,24.7812 0,24.75 0,24.7813 -29.5313,0 0,24.75 29.5313,0.032 0,24.75 0,24.7812 0,24.75 6.71871,6.6875 0,0.062 10.65628,0 -2.0313,29.4375 10.78129,0 2.3125,-29.4375 10.65624,0 7.6876,-6.6875 3.6562,-24.7813 3.625,-24.7811 3.6562,-24.7813 29.5313,0 3.625,-24.7812 -29.5313,0 3.6563,-24.8125 3.625,-24.7813 3.625,-24.7812 -5.75,-6.625 0,-0.032 -20.0313,0 2.2813,-29.4688 z m -22.06252,36.1875 19.56249,0 19.62503,0 19.5625,0 -3.625,24.75 -3.625,24.7813 -3.625,24.7812 -3.6563,24.7813 -3.625,24.75 -3.625,24.7812 -3.6562,24.7813 -11.0938,0 -11.12502,0 -11.0937,0 -0.0319,-24.7813 0,-24.7812 0,-24.75 0,-24.7813 0,-24.7812 0,-24.7813 z"
   id="path240"
   inkscape:connector-curvature="0"
   sodipodi:nodetypes="ccccccccccccccccccccccccccccccccccccccccccccccccccccccccc" /><path
   style="fill:none;stroke:#ff0000;stroke-width:0.03543307;stroke-miterlimit:4;stroke-opacity:1;stroke-dasharray:none"
   d="m 505.81949,732.68629 2.2812,29.4688 -20.0312,0 0,0.062 -5.7812,6.5937 3.6562,24.7813 3.625,24.7812 3.6562,24.8125 -29.5312,0 3.625,24.7813 29.5312,0 3.6563,24.7812 3.625,24.7813 3.625,24.7812 7.7187,6.625 0,0.062 0.063,0 0.031,0 10.5625,0 2.3125,29.4375 10.7812,0 -2.0314,-29.4375 10.6562,0 0,-0.094 6.7188,-6.6562 0,-24.75 0,-24.7813 0,-24.75 29.5312,-0.031 0,-24.75 -29.5312,0 0,-24.7812 0,-24.75 0,-24.7813 -6.7188,-6.7187 -20.0937,0 -2,-29.4688 z m -16.7188,36.1875 19.5313,0 19.5937,0 19.5938,0 0.031,24.75 0,24.7813 0,24.7812 0,24.7813 0,24.75 0,24.7812 -0.062,24.7813 -11.0626,0 -11.125,0 -11.0312,0 -3.7188,-24.7813 -3.625,-24.7812 -3.625,-24.7813 -3.6562,-24.75 -3.625,-24.7812 -3.6562,-24.7813 z"
   id="path244"
   inkscape:connector-curvature="0"
   sodipodi:nodetypes="ccccccccccccccccccccccccccccccccccccccccccccccccccccccccccc" /><path
   style="fill:none;stroke:#ff0000;stroke-width:0.03543307;stroke-miterlimit:4;stroke-opacity:1;stroke-dasharray:none"
   d="m 415.24269,587.50879 0,0.032 -6.71882,6.7188 0,173.375 6.71882,6.6875 0,0.032 32.34376,0 7.71871,-6.6563 25.46872,-173.5 -5.75001,-6.6562 0,-0.032 -59.78118,0 z m 0,6.7188 58.81248,0 -25.46869,173.4062 -33.34379,0 0,-173.4062 z"
   id="path366"
   inkscape:connector-curvature="0" /><path
   style="fill:none;stroke:#ff0000;stroke-width:0.03543307;stroke-miterlimit:4;stroke-opacity:1;stroke-dasharray:none"
   d="m 387.41758,783.91429 0,0.062 -5.75001,6.625 25.46876,173.4999 7.71874,6.625 0,0.032 32.3438,0 0,-0.032 6.75,-6.6875 0,-173.3749 -6.75,-6.75 -59.78129,0 z m 0.99999,6.7187 58.7813,0 0,173.4062 -33.31254,0 -25.46876,-173.4062 z"
   id="path368"
   inkscape:connector-curvature="0" /><path
   inkscape:connector-curvature="0"
   style="fill:none;stroke:#ff0000;stroke-width:0.03543307;stroke-miterlimit:4;stroke-opacity:1;stroke-dasharray:none"
   d="m 22.261031,874.82129 30.21875,293.15641 116.312499,0 116.28125,0 30.21875,-293.15641 -146.5,0 z m 11.9375,5.6563 41.0625,0 4.65625,11.5625 -32.96875,0 z m 82.156249,0 41.09375,0 -11.59375,11.5625 -32.96875,0 z m 63.75,0 41.09375,0 3.46875,11.5625 -32.96875,0 z m 82.1875,0 41.0625,0 -12.75,11.5625 -32.96875,0 z m -180.062499,4.9687 27.687499,0 -7.40625,24.75 -10.312499,0 z m 145.406249,0 27.6875,0 -9.96875,24.75 -10.28125,0 z m -198.531249,0.6875 12.75,11.5625 8.5,82.4376 -11.96875,-3.8438 z m 279.343749,0 -9.28125,90.1563 -11.96875,3.8438 8.5,-82.4376 z m -145.34375,0.031 0,90.1563 -11.5625,3.8438 0,-82.4376 z m 11.34375,0 11.5625,11.5625 0,82.4376 -11.5625,-3.8437 0,-90.1563 z m -114.718749,17.4375 24.84375,0 4.65625,11.5625 -16.75,0 z m 49.718749,0 24.84375,0 -11.5625,11.5625 -16.75,0 3.46875,-11.5624 z m 93.8125,0 24.84375,0 3.46875,11.5625 -16.71875,0 z m 49.71875,0 24.84375,0 -12.75,11.5625 -16.75,0 z m -207.468749,0.7188 6.25,5.6562 7.125,69.3439 -5.84375,-1.875 z m 246.531249,0 -7.53125,73.1251 -5.84375,1.875 7.125,-69.3439 z m -143.59375,0.2188 0,72.9376 -5.40625,1.7812 0,-69.3438 z m 40.65625,0 5.40625,5.375 0,69.3438 -5.40625,-1.7812 z m -119.406249,86.5936 6.21875,60.50001 -23.9375,8.2812 -7.9375,-77.03121 25.65625,8.25 m 4.59375,-3.2813 -11.96875,-3.8437 -7.6875,-74.7814 0,3e-4 12.75,11.5625 6.90625,67.0626 m 208.624999,-78.6251 -7.6875,74.7813 -11.96875,3.8438 6.90625,-67.0626 z m -142.96875,0.031 0,74.75 -11.5625,3.875 0,-67.0625 z m 57.65625,0 11.5625,11.5625 0,67.0625 -11.5625,-3.875 z m -124.531249,11.5625 49.656249,0 0,201.15631 -28.937499,0 z m 141.781249,0 49.625,0 -20.71875,201.15631 -28.90625,0 z m 78.65625,62.0625 -7.90625,77.03131 -23.96875,-8.2813 6.25,-60.50001 z m -135.375,0.031 0,76.93751 -24.78125,-8.25 0,-60.40621 z m 21.28125,0 24.78125,8.2813 0,60.40621 -24.78125,8.25 z m -98.218749,72.00001 0.0312,0 6.90625,67.0625 -10.40625,11.5625 -7.6875,-74.75 11.15625,-3.875 z m 47.187499,0 11.5625,3.8438 0,74.75 -11.5625,-11.5625 z m 80.78125,0 0,67.0313 -11.5625,11.5625 0,-74.75 z m 58.34375,3.875 -7.6875,74.75 -10.40625,-11.5625 6.9375,-67.0625 z m 22.34375,7.6875 -9.28125,90.1875 -10.375,-11.5625 8.5,-82.4687 z m -230.999999,-3.8437 8.5,82.4687 -10.375,11.5625 -9.28125,-90.1875 z m 92.687499,0 11.5625,3.8437 0,90.1563 -11.5625,-11.5625 z m 34.46875,0 0,82.4375 -11.5625,11.5625 0,-90.1563 z m -42.96875,0.875 5.40625,1.8125 0,72.9375 -5.40625,-5.375 z m 51.46875,0 0,69.375 -5.40625,5.375 0,-72.9375 z m -127.218749,0.062 7.15625,69.5312 -4.5625,5.0625 -7.5,-72.9062 z m 202.968749,0 4.90625,1.6875 -7.5,72.9062 -4.5625,-5.0625 z m -175.874999,64.0625 9.437499,0 -3.0625,11.5625 -16.749999,0 z m 18.874999,0 9.46875,0 11.5625,11.5625 -16.78125,0 z m 101.59375,0 9.4375,0 -4.25,11.5625 -16.78125,0 z m 18.875,0 9.4375,0 10.375,11.5625 -16.75,0 z m -160.124999,23.125 24.09375,0 -3.0625,11.5625 -31.40625,0 z m 48.187499,0 24.0625,0 11.59375,11.5625 -31.40625,0 z m 69.90625,0 24.0625,0 -4.25,11.5625 -31.40625,0 z m 48.15625,0 24.09375,0 10.375,11.5625 -31.40625,0 z"
   id="path6-0"
   sodipodi:nodetypes="cccccccccccccccccccccccccccccccccccccccccccccccccccccccccccccccccccccccccccccccccccccccccccccccccccccccccccccccccccccccccccccccccccccccccccccccccccccccccccccccccccccccccccccccccccccccccccccccccccccccccccccccccccccccccccccccccccccccccccccccccccccccccccc" /><path
   style="fill:none;stroke:#ff0000;stroke-width:0.03543307;stroke-miterlimit:4;stroke-opacity:1;stroke-dasharray:none"
   d="m 563.06552,978.48849 -0.8438,17.6875 -16.81239,0 0,0.1251 -5.65632,5.56251 0,22.3437 0,22.3437 0,22.3438 0,22.3438 -17.7187,0 0,22.3437 17.7187,0 0,22.375 0,22.3438 0,22.3437 0,22.3438 5.65632,5.5312 0,0.1251 9.37499,0 -0.84381,17.7188 9.43749,0 1.00003,-17.7188 9.28127,0 0.0939,0 0,-0.093 6.25,-5.5313 2.28129,-22.3437 2.31239,-22.375 2.31261,-22.3437 2.34369,-22.3751 17.68751,0.032 2.28126,-22.3749 -17.71877,0 2.3125,-22.3438 2.31251,-22.375 2.28132,-22.3438 2.3124,-22.3437 -5.09372,-5.53131 0,-0.125 -16.81249,0 0.99999,-17.6876 -16.74999,0 z m -17.59379,23.37501 16.46879,0 16.56248,0 16.46872,0 -2.21871,22.3437 -2.3125,22.3438 -2.28118,22.3438 -2.31261,22.3437 -2.3124,22.3438 -2.31261,22.375 -2.28118,22.3437 -2.31251,22.3438 -2.375,22.3437 -9.5625,0 -9.65619,0 -9.5626,0 -0.0624,-22.3437 0,-22.3438 0,-22.3437 0,-22.375 0,-22.3438 0,-22.3437 0,-22.3438 0,-22.3438 0.0624,-22.3437 z"
   id="path204"
   inkscape:connector-curvature="0" /><path
   style="fill:none;stroke:#ff0000;stroke-width:0.03543307;stroke-miterlimit:4;stroke-opacity:1;stroke-dasharray:none"
   d="m 472.87798,1192.3625 0.99999,-17.6875 -16.81249,0 0,-0.062 -5.09379,-5.5937 2.28129,-22.3438 2.3125,-22.2187 -0.0319,0 2.34372,-22.5 2.31251,-22.3438 -17.7188,0 2.28128,-22.375 17.68752,0.032 2.34379,-22.375 2.3124,-22.3437 2.28128,-22.34381 2.31251,-22.375 6.25,-5.5 0,-0.1251 9.37502,0 1,-17.7187 9.43749,0 -0.8437,17.7187 9.37499,0 0,0.062 5.65621,5.5938 0,22.3438 0,22.34371 0,22.3437 0,22.3751 17.71881,0 0,22.3437 -17.71881,0 0,22.3437 0,22.3438 0,22.3438 0,22.3437 -5.65621,5.625 0,0.062 -16.84378,0 -0.81252,17.6875 -16.74999,0 z m -15.1875,-23.375 16.50001,0 16.5312,0 16.50001,0 0.0627,-22.3437 0,-22.3438 0,-22.3438 0,-22.3437 0,-22.3438 0,-22.375 0,-22.3437 0,-22.34381 -0.0627,-22.3437 -9.59372,0 -9.625,0 -9.5625,0 -2.37501,22.3437 -2.3125,22.34381 -2.31247,22.3437 -2.28122,22.375 -2.31261,22.3438 -2.3124,22.3437 -2.31261,22.5001 -2.28118,22.1875 -2.25,22.3437 z"
   id="path206"
   inkscape:connector-curvature="0" /><path
   style="fill:none;stroke:#ff0000;stroke-width:0.03543307;stroke-miterlimit:4;stroke-opacity:1;stroke-dasharray:none"
   d="m 303.41156,1174.6449 0,-0.094 -5.0625,-5.5625 20.71874,-201.18751 6.28126,-5.625 28.31247,0 5.65632,5.6563 0,201.12501 -5.65632,5.625 0,0.062 -50.24997,0 z m 0.65622,-5.6875 49.56246,0 0,-201.12501 -28.87494,0 -20.68752,201.12501 z"
   id="path302"
   inkscape:connector-curvature="0" /><path
   style="fill:none;stroke:#ff0000;stroke-width:0.03543307;stroke-miterlimit:4;stroke-opacity:1;stroke-dasharray:none"
   d="m 387.78654,980.17599 0,0.094 -5.68751,5.5937 0,201.12501 5.68751,5.5938 0,0.062 0.0624,0 28.28119,0 0,-0.062 6.25,-5.5625 20.71882,-201.18751 -5.09383,-5.625 0,-0.032 -50.21868,0 z m 0.0319,5.6875 49.56239,0 -20.71867,201.12501 -28.81251,0 -0.0319,-201.12501 z"
   id="path304"
   inkscape:connector-curvature="0" /><path
   inkscape:connector-curvature="0"
   style="fill:none;stroke:#ff0000;stroke-width:0.03543307;stroke-miterlimit:4;stroke-opacity:1;stroke-dasharray:none"
   d="m 614.87003,859.50859 17.5,268.06251 97.625,0 97.59372,0 17.5,-268.06251 -115.09372,0 -115.125,0 z m 9.5,4.625 32.125,0 3.75,9.9062 -25.28125,0 -10.59375,-9.9062 z m 64.28125,0 32.125,0 -9.9375,9.9062 -25.28125,0 3.09375,-9.9062 z m 50.53125,0 32.15625,0 3.0625,9.9062 -25.28125,0 -9.9375,-9.9062 z m 64.28125,0 32.12497,0 -10.5625,9.9062 -25.31247,0 3.75,-9.9062 z m -183.375,4.5937 10.5625,9.9375 5,76.5626 -10.125,-3.2813 -5.4375,-83.2188 z m 105.28125,0 0,83.2188 -9.90625,3.3125 0,-76.625 9.90625,-9.9063 z m 9.21875,0 9.90625,9.9063 0,76.625 -9.90625,-3.3125 0,-83.2188 z m 105.31247,0 -5.4375,83.2188 -10.1562,3.2813 5,-76.5626 0,-0.031 10.5937,-9.9062 z m -194.37497,15.2188 18.4375,0 3.75,9.9375 -11.625,0 -10.5625,-9.9375 z m 36.9375,0 18.46875,0 -9.9375,9.9375 -11.625,0 3.09375,-9.9375 z m 76.5625,0 18.46875,0 3.09375,9.9375 -11.625,0 -9.9375,-9.9375 z m 36.96875,0 18.43752,0 -10.56252,9.9375 -11.625,0 3.75,-9.9375 z m -162.40625,0.4375 5.09375,4.7812 4.25,65.3438 -4.875,-1.5938 -4.46875,-68.5312 z m 192.78127,0 -4.4688,68.5312 -4.875,1.5938 4.25,-65.3438 5.0938,-4.7812 z m -113.56252,0.094 0,68.4687 -4.625,1.5313 0,-65.375 4.625,-4.625 z m 34.34375,0 4.625,4.625 0,65.375 -4.625,-1.5313 0,-68.4687 z m -105.9375,4.0625 10.5625,9.9375 4.125,63.375 -10.125,-3.3125 -4.5625,-70 z m 64.3125,0.031 0,69.9688 -9.90625,3.3125 0,-63.3751 9.90625,-9.9062 z m 48.90625,0 9.90625,9.9062 0,63.3751 -9.90625,-3.3125 0,-69.9688 z m 64.31252,0 -4.5625,69.9688 -10.12502,3.3125 4.12502,-63.3751 10.5625,-9.9062 z m -162.34377,9.9063 34.59375,0 0,190.12511 -22.1875,0 -12.40625,-190.12511 z m 112.5625,0 34.625,0 -12.4375,190.12511 -22.1875,0 0,-190.12511 z m -138.84375,59.1251 21.71875,7.0625 3.78125,57.75001 -20.8125,7.0625 -4.6875,-71.87501 z m 91,0 0,71.87501 -21.25,-7.0938 0,-57.68751 21.25,-7.0937 z m 17.71875,0 21.25,7.0937 0,57.68751 -21.25,7.0938 0,-71.87501 z m 90.99997,0 -4.6875,71.87501 -20.81247,-7.0625 3.78127,-57.75001 21.7187,-7.0625 z m -169.78122,67.62501 4.125,63.375 -9.25,9.9062 -4.59375,-69.9687 9.71875,-3.3125 z m 35.5625,0 9.90625,3.3125 0,69.9687 -9.90625,-9.9062 0,-63.375 z m 68.71875,0 0,63.375 -9.90625,9.9062 0,-69.9687 9.90625,-3.3125 z m 35.5625,0 9.46877,3.2187 0.2187,0.3438 -4.5312,69.75 -9.28127,-9.9375 4.125,-63.375 z m -159.25,6.625 5,76.5625 0,0.031 -9.28125,9.9062 -5.4375,-83.2187 9.71875,-3.2812 z m 74.8125,0 9.90625,3.2812 0,83.2188 -9.90625,-9.9063 0,-76.5937 z m 29.03125,0 0,76.5937 -9.90625,9.9063 0,-83.2188 9.90625,-3.2812 z m 74.96872,0.031 9.5625,3.25 -5.4375,83.2187 -9.2812,-9.9062 5,-76.4375 0.1562,-0.125 z m -111.28122,0.7187 4.625,1.5313 0,68.4687 -4.625,-4.625 0,-65.375 z m 43.59375,0 0,65.375 -4.625,4.625 0,-68.4687 4.625,-1.5313 z m -103.90625,0.031 4.28125,65.4375 -4.15625,4.4688 -4.46875,-68.4375 4.34375,-1.4688 z m 164.21872,0 4.3438,1.4688 -4.4688,68.4375 -4.1562,-4.4688 4.2812,-65.4375 z m -142.99997,60.5625 7.3125,0 -2.875,9.9375 -13.6875,0 9.25,-9.9375 z m 14.625,0 7.28125,0 9.9375,9.9375 -13.6875,0 -3.53125,-9.9375 z m 85.25,0 7.28125,0 -3.53125,9.9375 -13.6875,0 9.9375,-9.9375 z m 14.59375,0 7.3125,0 9.28125,9.9375 -13.71875,0 -2.875,-9.9375 z m -133,19.8438 20.09375,0 -2.875,9.9062 -26.5,0 9.28125,-9.9062 z m 40.1875,0 20.09375,0 9.9375,9.9062 -26.5,0 -3.53125,-9.9062 z m 58.375,0 20.09375,0 -3.53125,9.9062 -26.5,0 9.9375,-9.9062 z m 40.1875,0 20.09372,0 9.2813,9.9062 -26.50002,0 -2.875,-9.9062 z"
   id="path6-54" /><path
   style="fill:none;stroke:#ff0000;stroke-width:0.03543307;stroke-miterlimit:4;stroke-opacity:1;stroke-dasharray:none"
   d="m 732.2283,1135.4084 -0.5313,17.7187 -11.625,0 -0.062,0 0,0.032 -4.5938,4.5625 0,17.2812 0,17.2813 0,17.2812 0,17.2813 0,17.2813 -17.7187,0 0,17.2812 17.7187,0 0,17.2813 0,17.3125 0,17.2812 0,17.2813 0,17.2812 4.5938,4.5313 0,0.062 7.25,0 -0.5312,17.7187 7.3124,0 0.625,-17.7187 7.25,0 0,-0.062 4.9063,-4.5313 1.125,-17.2812 1.125,-17.2813 1.125,-17.2812 1.1563,-17.2813 1.125,-17.3125 17.7187,0 1.125,-17.2812 -17.7187,0 1.125,-17.2813 1.125,-17.2813 1.125,-17.2812 1.125,-17.2813 1.125,-17.2812 -4.2813,-4.5313 0,-0.062 -11.6875,0 0.625,-17.7187 -11.6562,0 z m -12.1563,22.3124 11.4687,0 11.5626,0 11.5,0 -1.0938,17.2813 -1.125,17.2813 -1.125,17.2812 -1.125,17.2813 -1.1562,17.2812 -1.125,17.2813 -1.125,17.3125 -1.125,17.2812 -1.125,17.2813 -1.125,17.2812 -1.1563,17.2813 -7.375,0 -7.4063,0 -7.3437,0 -0.062,-17.2813 0,-17.2812 0,-17.2813 0,-17.2812 0,-17.3125 0,-17.2813 0,-17.2812 0,-17.2813 0,-17.2812 0,-17.2813 0.062,-17.2813 z"
   id="path192"
   inkscape:connector-curvature="0" /><path
   style="fill:none;stroke:#ff0000;stroke-width:0.03543307;stroke-miterlimit:4;stroke-opacity:1;stroke-dasharray:none"
   d="m 660.95884,1160.9322 0.625,17.7187 -11.6563,0 -4.3437,4.5937 1.1563,17.2813 1.125,17.2813 1.125,17.2812 1.125,17.2813 1.125,17.2812 -17.7188,0 1.125,17.2813 17.7188,0 1.125,17.3125 1.125,17.2812 1.125,17.2813 1.1562,17.2812 1.125,17.2813 4.9062,4.5625 0,0.032 0.032,0 7.2187,0 0.625,17.7188 7.2813,0 -0.5313,-17.7188 7.2813,0 0,-0.062 4.5937,-4.5313 0,-17.2812 0,-17.2812 0,-17.2813 0,-17.3125 0,-17.2813 17.7188,0 0,-17.2812 -17.7188,0 0,-17.2813 0,-17.2813 0,-17.2812 0,-17.2813 0,-17.2812 -4.625,-4.5938 -11.6562,0 -0.5312,-17.7187 -11.6563,0 z m -10.7187,22.3124 11.5,0 11.5312,0 11.5312,0 0.032,17.2813 0,17.2813 0,17.2812 0,17.2813 0,17.2812 0,17.2813 0,17.3125 0,17.2812 0,17.2813 0,17.2812 -0.062,17.2813 -7.3438,0 -7.4062,0 -7.375,0 -1.1562,-17.2813 -1.125,-17.2812 -1.125,-17.2813 -1.125,-17.2812 -1.125,-17.3125 -1.1563,-17.2813 -1.125,-17.2812 -1.125,-17.2813 -1.125,-17.2812 -1.125,-17.2813 -1.0937,-17.2813 z"
   id="path194"
   inkscape:connector-curvature="0" /><path
   style="fill:none;stroke:#ff0000;stroke-width:0.03543307;stroke-miterlimit:4;stroke-opacity:1;stroke-dasharray:none"
   d="m 590.80651,1197.9999 -4.5938,4.5937 0,190.1251 4.5938,4.5312 0,0.062 21.875,0 0.032,0 0,-0.032 4.9061,-4.5625 12.4064,-190.125 -4.3126,-4.5625 0,-0.032 -0.032,0 -34.8438,0 -0.032,0 z m 0.032,4.5937 34.5312,0 -12.375,190.1251 -22.125,0 -0.032,-190.1251 z"
   id="path306"
   inkscape:connector-curvature="0" /><path
   style="fill:none;stroke:#ff0000;stroke-width:0.03543307;stroke-miterlimit:4;stroke-opacity:1;stroke-dasharray:none"
   d="m 494.03026,1196.1122 0,0.062 -4.3125,4.5312 12.4062,190.125 4.9063,4.5625 0,0.032 0.032,0 0.032,0.032 0,-0.032 21.8126,0 4.6563,-4.5937 0,-190.125 -4.5939,-4.5313 0,-0.062 -34.8749,0 -0.062,0 z m 0.375,4.5937 34.5,0 0,190.1251 -22.125,0 -12.375,-190.1251 z"
   id="path308"
   inkscape:connector-curvature="0" /><path
   inkscape:connector-curvature="0"
   style="fill:none;stroke:#ff0000;stroke-width:0.03543307;stroke-miterlimit:4;stroke-opacity:1;stroke-dasharray:none"
   d="m 19.338393,1176.7575 5.625,221.3125 91.374997,0 91.34375,0 5.625,-221.3125 -96.96875,0 z m 7.1875,3.5312 27.5625,0 2.90625,8.2813 -21.96875,0 -0.0312,0 -8.46875,-8.2813 z m 55.15625,0 27.562497,0 -8.28125,8.2813 -21.968747,0 z m 41.718747,0 27.59375,0 2.6875,8.2813 -22,0 z m 55.15625,0 27.5625,0 -8.5,8.2813 -21.96875,0 z m -155.468747,3.5625 8.46875,8.2813 1.59375,63.5 -8.3125,-2.75 z m 89.687497,0 0,69.0313 -8.25,2.75 0,-63.5313 z m 7.09375,0 8.28125,8.25 0,63.5313 -8.28125,-2.75 z m 89.71875,0 -1.75,69.0313 -8.34375,2.75 1.59375,-63.5313 z m -166.093747,12.9688 16.375,0 2.90625,8.2812 -10.8125,0 z m 32.8125,0 16.40625,0 -8.28125,8.2812 -10.8125,0 z m 63.624997,0 16.40625,0 2.6875,8.2812 -10.8125,0 z m 32.84375,0 16.40625,0 -8.5,8.2812 -10.8125,0 z m -131.281247,61.5625 -1.46875,-58 8.46875,8.25 1.34375,52.5312 -8.34375,-2.7812 -0.0312,0 m -2.25,-3.375 -3.90625,-1.2813 -1.4375,-56.7812 -5e-5,0 4,3.9062 1.34375,54.1563 m 154.218747,-3e-4 1.375,-54.1562 3.96875,-3.9063 0,3e-4 -1.4375,56.7812 -3.90625,1.2813 m -2.28125,3.375 0,0.031 -8.34375,2.75 1.34375,-52.5313 8.46875,-8.25 -1.46875,58 m -88.84375,-61.4062 0,56.75 -3.843747,1.2812 0,-54.1875 z m 28.03125,0 3.84375,3.8437 0,54.1875 -3.84375,-1.2812 z m -34.093747,3.4062 0,58.0313 -8.28125,2.75 0,-52.5313 z m 40.156247,0 8.28125,8.25 0,52.5313 -8.28125,-2.75 z m -84.343747,8.25 32.375,0 0,157.5313 -28.40625,0 z m 96.156247,0 32.375,0 -3.96875,157.5313 -28.40625,0 z m -119.718747,48.9688 17.84375,5.9063 1.21875,47.8125 -17.5625,5.875 z m 80.749997,0 0,59.5938 -17.718747,-5.9063 0,-47.7812 z m 14.15625,0 17.71875,5.9063 0,47.7812 -17.71875,5.9063 z m 80.75,0 -1.5,59.5938 -17.5625,-5.875 1.21875,-47.8125 z m -152.999997,56.0625 1.34375,52.5 -8.0625,8.2813 -1.46875,-58.0313 z m 36.8125,0 8.28125,2.7813 0,58 -8.28125,-8.2813 z m 56.718747,0 0,52.5 -8.28125,8.2813 0,-58.0313 z m 36.8125,0 8.1875,2.75 -1.46875,58.0313 -8.0625,-8.2813 z m 16.375,5.5 8.21875,2.7813 -1.75,69.0312 -8.0625,-8.25 z m -163.093747,0.031 1.59375,63.5 0,0.031 -8.0625,8.25 -1.71875,-69.0312 8.1875,-2.75 z m 69.749997,0 8.25,2.75 0,69.0313 -8.25,-8.2813 z m 23.625,0 0,63.5 -8.28125,8.2813 0,-69.0313 z m -87.343747,0.625 1.375,54.2188 -3.6875,3.7812 -1.4375,-56.7187 z m 57.65625,0 3.843747,1.2813 0,56.75 -3.843747,-3.8438 z m 35.718747,0 0,54.1875 -3.84375,3.8438 0,-56.75 z m 57.65625,0 3.75,1.2813 -1.4375,56.7187 -3.6875,-3.7812 z m -135.718747,49.9063 9.4375,0 -2.625,8.25 -14.84375,0 z m 18.875,0 9.4375,0 8.25,8.25 -14.84375,0 z m 73.218747,0 9.4375,0 -2.8125,8.25 -14.875,0 z m 18.875,0 9.4375,0 8.03125,8.25 -14.84375,0 z m -127.062497,16.5313 20.3125,0 -2.625,8.25 -25.75,0 z m 40.625,0 20.312497,0 8.28125,8.25 -25.781247,0 z m 51.031247,0 20.3125,0 -2.8125,8.25 -25.78125,0 z m 40.625,0 20.34375,0 8.03125,8.25 -25.75,0 z"
   id="path6-50"
   sodipodi:nodetypes="ccccccccccccccccccccccccccccccccccccccccccccccccccccccccccccccccccccccccccccccccccccccccccccccccccccccccccccccccccccccccccccccccccccccccccccccccccccccccccccccccccccccccccccccccccccccccccccccccccccccccccccccccccccccccccccccccccccccccccccccccccccc" /><path
   style="fill:none;stroke:#ff0000;stroke-width:0.03543307;stroke-miterlimit:4;stroke-opacity:1;stroke-dasharray:none"
   d="m 357.99295,1183.1359 0.25015,17.7187 -10.84379,0 0,0.032 -3.4374,3.5 0.3437,14.3438 0.37499,14.3125 0.37499,14.3125 0.3437,14.3125 0.37502,14.3438 -17.71873,0 0.3437,14.3124 17.71881,0 0.37502,14.3126 0.37499,14.3437 0.3437,14.3125 0.37499,14.3125 0.3437,14.3125 3.6563,3.5312 0,0.032 0.0319,0 9.4062,0 0.21898,17.7188 9.43747,0 -0.2186,-17.7188 9.4062,0 3.5625,-3.5625 0,-14.3124 0,-14.3126 0,-14.3125 0,-14.3437 0,-14.3125 17.7187,0 0,-14.3125 -17.7187,0 0,-14.3438 0,-14.3124 0,-14.3126 0,-14.3125 0,-14.3437 -3.5625,-3.5313 -10.8125,0 -0.2186,-17.7187 -10.84382,0 z m -10.46881,21.25 10.78133,0 10.78127,0 10.75,0 0.032,14.3437 0,14.3125 0,14.3126 0,14.3124 0,14.3438 0,14.3125 0,14.3125 0,14.3437 0,14.3125 0,14.3126 -0.032,14.3124 -9.4063,0 -9.4687,0 -9.4376,0 -0.40616,-14.3124 -0.34371,-14.3126 -0.37502,-14.3125 -0.37499,-14.3437 -0.3437,-14.3125 -0.37499,-14.3125 -0.3437,-14.3438 -0.37502,-14.3124 -0.37499,-14.3126 -0.3437,-14.3125 -0.3437,-14.3437 z"
   id="path192-5"
   inkscape:connector-curvature="0" /><path
   style="fill:none;stroke:#ff0000;stroke-width:0.03543307;stroke-miterlimit:4;stroke-opacity:1;stroke-dasharray:none"
   d="m 440.71184,1183.1359 -0.219,17.7187 -10.8438,0 0,0.032 -3.5312,3.5 0,14.3438 0,14.3125 0,14.3125 0,14.3125 0,14.3438 -17.7188,0 0,14.3124 17.7188,0 0,14.3126 0,14.3437 0,14.3125 0,14.3125 0,14.3125 3.5312,3.4687 0,0.094 9.4376,0 -0.2186,17.7188 9.4375,0 0.2186,-17.7188 9.4376,0 0,-0.062 3.625,-3.5 0.375,-14.3125 0.375,-14.3125 0.3437,-14.3125 0.375,-14.3437 0.3437,-14.3125 17.7188,0 0.375,-14.3125 -17.7188,0 0.375,-14.3438 0.3437,-14.3124 0.375,-14.3126 0.375,-14.3125 0.3437,-14.3437 -3.4376,-3.5 0,-0.032 -10.875,0 0.2502,-17.7187 -10.8124,0 z m -11.0313,21.25 10.7813,0 10.7812,0 10.7812,0 -0.3437,14.3437 -0.3437,14.3125 -0.375,14.3126 -0.375,14.3124 -0.3437,14.3438 -0.375,14.3125 -0.375,14.3125 -0.3437,14.3437 -0.375,14.3125 -0.3437,14.3126 -0.4063,14.3124 -9.4374,0 -9.4688,0 -9.4062,0 -0.063,-14.3124 0,-14.3126 0,-14.3125 0,-14.3437 0,-14.3125 0,-14.3125 0,-14.3438 0,-14.3124 0,-14.3126 0,-14.3125 0.032,-14.3437 z"
   id="path200"
   inkscape:connector-curvature="0" /><path
   style="fill:none;stroke:#ff0000;stroke-width:0.03543307;stroke-miterlimit:4;stroke-opacity:1;stroke-dasharray:none"
   d="m 284.99307,1200.8546 0,0.032 -3.53119,3.5 0,157.5313 3.53119,3.5 0,0.062 28.28118,0 0.0319,0 0,-0.032 3.62498,-3.5313 4.00001,-157.5312 -3.46869,-3.5 0,-0.032 -32.46881,0 z m 0.0319,3.5313 32.31258,0 -3.96879,157.5312 -28.34379,0 0,-157.5312 z"
   id="path306-2"
   inkscape:connector-curvature="0" /><path
   style="fill:none;stroke:#ff0000;stroke-width:0.03543307;stroke-miterlimit:4;stroke-opacity:1;stroke-dasharray:none"
   d="m 230.74297,1200.8546 0,0.032 -3.4375,3.5 3.96875,157.5313 3.65623,3.5312 0,0.032 0.0319,0 28.21872,0 0.0319,0 0,-0.032 3.56241,-3.5312 0,-157.5313 -3.56241,-3.5 0,-0.032 -0.0319,0 -32.43748,0 z m 0.12508,3.5313 32.31252,0 0,157.5312 -28.31251,0 -4.00001,-157.5312 z"
   id="path312"
   inkscape:connector-curvature="0" /></svg>